<svg xmlns="http://www.w3.org/2000/svg" xmlns:xlink="http://www.w3.org/1999/xlink" width="1640" zoomAndPan="magnify" viewBox="0 0 1230 693.000001" height="924" preserveAspectRatio="xMidYMid meet" version="1.0"><defs><g/><clipPath id="4d47f9ec41"><path d="M 0.886719 0 L 1229.113281 0 L 1229.113281 692 L 0.886719 692 Z M 0.886719 0 " clip-rule="nonzero"/></clipPath><clipPath id="2d0504e30f"><path d="M 289 20.515625 L 941 20.515625 L 941 671.328125 L 289 671.328125 Z M 289 20.515625 " clip-rule="nonzero"/></clipPath></defs><g clip-path="url(#4d47f9ec41)"><path fill="#ffffff" d="M 0.886719 0 L 1229.113281 0 L 1229.113281 699.492188 L 0.886719 699.492188 Z M 0.886719 0 " fill-opacity="1" fill-rule="nonzero"/><path fill="#ffffff" d="M 0.886719 0 L 1229.113281 0 L 1229.113281 692 L 0.886719 692 Z M 0.886719 0 " fill-opacity="1" fill-rule="nonzero"/><path fill="#ffffff" d="M 0.886719 0 L 1229.113281 0 L 1229.113281 692 L 0.886719 692 Z M 0.886719 0 " fill-opacity="1" fill-rule="nonzero"/></g><g clip-path="url(#2d0504e30f)"><path fill="#000000" d="M 522.246094 202.695312 L 675.839844 390.296875 L 703.65625 424.273438 L 703.65625 32.820312 C 675.398438 24.765625 645.53125 20.515625 614.78125 20.515625 C 525.027344 20.515625 443.617188 56.980469 384.757812 115.855469 C 325.898438 174.726562 289.441406 256.152344 289.441406 345.921875 C 289.441406 435.695312 325.898438 517.121094 384.757812 575.992188 C 413.308594 604.546875 447.132812 627.832031 484.761719 644.234375 L 484.761719 202.550781 L 522.246094 202.550781 Z M 672.175781 207.089844 L 672.175781 335.378906 L 542.160156 176.484375 L 537.328125 170.625 L 452.84375 170.625 L 452.84375 595.761719 C 435.273438 584.339844 419.167969 571.15625 404.378906 556.511719 C 350.496094 502.621094 317.257812 428.226562 317.257812 345.921875 C 317.257812 263.621094 350.644531 189.222656 404.378906 135.332031 C 458.261719 81.4375 532.640625 48.195312 614.929688 48.195312 C 634.402344 48.195312 653.4375 50.097656 671.738281 53.613281 L 671.738281 207.089844 Z M 526.050781 659.171875 C 526.050781 541.722656 526.050781 423.539062 526.050781 305.503906 L 526.050781 267.71875 L 553.871094 301.695312 L 707.464844 489.292969 L 744.949219 489.292969 L 744.949219 47.609375 C 782.429688 64.011719 816.398438 87.296875 844.953125 115.855469 C 903.8125 174.726562 940.269531 256.152344 940.269531 345.921875 C 940.269531 435.695312 903.8125 517.121094 844.953125 575.992188 C 786.089844 634.863281 704.683594 671.328125 614.929688 671.328125 C 584.035156 671.328125 554.3125 667.082031 526.050781 659.171875 Z M 557.53125 638.230469 L 557.53125 356.464844 L 687.550781 515.363281 L 692.382812 521.21875 L 776.867188 521.21875 L 776.867188 96.230469 C 794.4375 107.652344 810.542969 120.832031 825.332031 135.476562 C 879.214844 189.371094 912.449219 263.765625 912.449219 346.070312 C 912.449219 428.371094 879.214844 502.621094 825.332031 556.511719 C 771.449219 610.40625 697.070312 643.648438 614.78125 643.648438 C 595.160156 643.648438 576.128906 641.746094 557.53125 638.230469 Z M 557.53125 638.230469 " fill-opacity="1" fill-rule="evenodd"/></g><g fill="#000000" fill-opacity="1"><g transform="translate(739.159946, 378.882284)"><g><path d="M 0 -34.28125 L 0 -22.828125 L -22.78125 -11.015625 L -22.78125 -10.8125 C -19.195312 -11.09375 -16.460938 -11.234375 -14.578125 -11.234375 L 0 -11.234375 L 0 -3.5 L -32.34375 -3.5 L -32.34375 -14.90625 L -9.859375 -26.671875 L -9.859375 -26.8125 C -13.117188 -26.601562 -15.738281 -26.5 -17.71875 -26.5 L -32.34375 -26.5 L -32.34375 -34.28125 Z M 0 -34.28125 "/></g></g></g><g fill="#000000" fill-opacity="1"><g transform="translate(739.159946, 323.897059)"><g><path d="M -9.8125 -24.640625 C -7.8125 -24.640625 -6.03125 -24.128906 -4.46875 -23.109375 C -2.914062 -22.097656 -1.707031 -20.632812 -0.84375 -18.71875 C 0.0078125 -16.800781 0.4375 -14.550781 0.4375 -11.96875 C 0.4375 -9.8125 0.285156 -8.003906 -0.015625 -6.546875 C -0.316406 -5.085938 -0.84375 -3.566406 -1.59375 -1.984375 L -9.375 -1.984375 C -8.519531 -3.648438 -7.851562 -5.382812 -7.375 -7.1875 C -6.894531 -8.988281 -6.65625 -10.640625 -6.65625 -12.140625 C -6.65625 -13.441406 -6.878906 -14.394531 -7.328125 -15 C -7.773438 -15.601562 -8.351562 -15.90625 -9.0625 -15.90625 C -9.507812 -15.90625 -9.898438 -15.78125 -10.234375 -15.53125 C -10.566406 -15.289062 -10.898438 -14.898438 -11.234375 -14.359375 C -11.578125 -13.828125 -12.269531 -12.394531 -13.3125 -10.0625 C -14.269531 -7.957031 -15.195312 -6.375 -16.09375 -5.3125 C -17 -4.257812 -18.035156 -3.476562 -19.203125 -2.96875 C -20.367188 -2.46875 -21.742188 -2.21875 -23.328125 -2.21875 C -26.304688 -2.21875 -28.628906 -3.300781 -30.296875 -5.46875 C -31.960938 -7.632812 -32.796875 -10.613281 -32.796875 -14.40625 C -32.796875 -17.75 -32.023438 -21.160156 -30.484375 -24.640625 L -23.734375 -21.96875 C -25.117188 -18.9375 -25.8125 -16.328125 -25.8125 -14.140625 C -25.8125 -13.003906 -25.609375 -12.175781 -25.203125 -11.65625 C -24.804688 -11.132812 -24.316406 -10.875 -23.734375 -10.875 C -23.097656 -10.875 -22.53125 -11.203125 -22.03125 -11.859375 C -21.53125 -12.515625 -20.613281 -14.296875 -19.28125 -17.203125 C -18.03125 -19.992188 -16.6875 -21.929688 -15.25 -23.015625 C -13.8125 -24.097656 -12 -24.640625 -9.8125 -24.640625 Z M -9.8125 -24.640625 "/></g></g></g><g fill="#000000" fill-opacity="1"><g transform="translate(739.159946, 280.54409)"><g><path d="M -22.046875 -26.96875 C -18.429688 -26.96875 -15.640625 -25.898438 -13.671875 -23.765625 C -11.710938 -21.628906 -10.734375 -18.601562 -10.734375 -14.6875 L -10.734375 -12.234375 L 0 -12.234375 L 0 -3.5 L -32.34375 -3.5 L -32.34375 -14.6875 C -32.34375 -18.769531 -31.445312 -21.835938 -29.65625 -23.890625 C -27.875 -25.941406 -25.335938 -26.96875 -22.046875 -26.96875 Z M -17.84375 -12.234375 L -17.84375 -13.828125 C -17.84375 -15.140625 -18.210938 -16.179688 -18.953125 -16.953125 C -19.691406 -17.722656 -20.707031 -18.109375 -22 -18.109375 C -24.1875 -18.109375 -25.28125 -16.898438 -25.28125 -14.484375 L -25.28125 -12.234375 Z M -17.84375 -12.234375 "/></g></g></g><g fill="#000000" fill-opacity="1"><g transform="translate(739.159946, 234.714291)"><g><path d="M -16.21875 -33.75 C -10.769531 -33.75 -6.628906 -32.414062 -3.796875 -29.75 C -0.972656 -27.082031 0.4375 -23.175781 0.4375 -18.03125 C 0.4375 -12.957031 -0.984375 -9.066406 -3.828125 -6.359375 C -6.671875 -3.648438 -10.8125 -2.296875 -16.25 -2.296875 C -21.632812 -2.296875 -25.742188 -3.640625 -28.578125 -6.328125 C -31.421875 -9.023438 -32.84375 -12.9375 -32.84375 -18.0625 C -32.84375 -23.21875 -31.429688 -27.117188 -28.609375 -29.765625 C -25.796875 -32.421875 -21.664062 -33.75 -16.21875 -33.75 Z M -16.21875 -11.5 C -9.957031 -11.5 -6.828125 -13.675781 -6.828125 -18.03125 C -6.828125 -20.238281 -7.585938 -21.875 -9.109375 -22.9375 C -10.628906 -24.007812 -13 -24.546875 -16.21875 -24.546875 C -19.445312 -24.546875 -21.828125 -24.003906 -23.359375 -22.921875 C -24.898438 -21.835938 -25.671875 -20.21875 -25.671875 -18.0625 C -25.671875 -13.6875 -22.519531 -11.5 -16.21875 -11.5 Z M -16.21875 -11.5 "/></g></g></g><g fill="#000000" fill-opacity="1"><g transform="translate(739.159946, 181.409773)"><g><path d="M -11.765625 -12.234375 L 0 -12.234375 L 0 -3.5 L -32.34375 -3.5 L -32.34375 -14.09375 C -32.34375 -22.875 -29.15625 -27.265625 -22.78125 -27.265625 C -19.03125 -27.265625 -16.132812 -25.4375 -14.09375 -21.78125 L 0 -31.203125 L 0 -21.296875 L -11.765625 -14.4375 Z M -18.328125 -12.234375 L -18.328125 -13.875 C -18.328125 -16.925781 -19.679688 -18.453125 -22.390625 -18.453125 C -24.609375 -18.453125 -25.71875 -16.953125 -25.71875 -13.953125 L -25.71875 -12.234375 Z M -18.328125 -12.234375 "/></g></g></g><g fill="#000000" fill-opacity="1"><g transform="translate(739.159946, 133.545435)"><g><path d="M 0 -17.765625 L 0 -9.03125 L -25.1875 -9.03125 L -25.1875 -1.125 L -32.34375 -1.125 L -32.34375 -25.640625 L -25.1875 -25.640625 L -25.1875 -17.765625 Z M 0 -17.765625 "/></g></g></g></svg>